<?xml version="1.0" encoding="utf-8"?>
<!-- Generator: Adobe Illustrator 25.4.1, SVG Export Plug-In . SVG Version: 6.00 Build 0)  -->
<svg version="1.1" id="Layer_1" xmlns="http://www.w3.org/2000/svg" xmlns:xlink="http://www.w3.org/1999/xlink" x="0px" y="0px"
	 viewBox="0 0 1920 1080" style="enable-background:new 0 0 1920 1080;" xml:space="preserve">
<style type="text/css">
	.st0{fill-rule:evenodd;clip-rule:evenodd;fill:#343A40;}
	.st1{fill-rule:evenodd;clip-rule:evenodd;fill:#73C5FF;}
	.st2{fill:#343A40;}
	.st3{clip-path:url(#SVGID_00000101819149184140310980000016304160060829617338_);}
	.st4{fill-rule:evenodd;clip-rule:evenodd;}
	.st5{fill:#343A40;stroke:#FFFFFF;stroke-width:0.7953;stroke-miterlimit:1.5907;}
	.st6{fill:none;}
	.st7{fill:#DAFCFF;}
	.st8{font-family:'ArialMT';}
	.st9{font-size:30px;}
	.st10{fill:#FFFFFF;}
	.st11{font-size:35px;}
	.st12{font-size:27px;}
	.st13{font-size:28px;}
	.st14{fill:none;stroke:#343A40;stroke-width:2;stroke-miterlimit:10;}
</style>
<g>
	<g id="surface1_00000091706780557439544680000018282297699319013789_">
		<path class="st0" d="M581.5,62.6L833.7,107L822,203.6l-3.9,30.9l-158-22.9l-3,16.2l-6.5,0.3l-3.9-4.2l-14.6-2.3l-18.4-2.6
			L602,200.8l-5.7-29.8l-7.2,3.5l2.1-13.3l6.3-14.2l-2.7-12l-2.6-5.9l-3.3-14.8l-15.7-25.1L581.5,62.6z"/>
		<g>
			<g>
				<g>
					<path class="st0" d="M1605.6,89.9l20.8,5.4l16.5,44.2l16.4,1.9l12,18.3l-4.7,6.4l-4.9,0.2l-1.4,4.3l-5.9-0.5l3.3,5.3l-4.4,0.6
						l-0.2,2.8l-7.1-3.3l0.9,5.4l-5.9-2.3l-4.2,4.9l-5.9-7.7l0.5,24.4l-6.3-3.5l-4.7,10.9l2.9,5.8l-2.4-0.2l-3.1-5.5l-5.5,3.6
						l3.7,5.6l-7.8,7.2l5-0.6l-0.7,3.8l-5.2,1.6l1,6.2l-4.5,4.6l-4.1-1.9l-25.4-68.6l6.2-2.7l-0.5-8.4l4.7-3.8l-1.9-5.2l2.1-6.2
						l-5.3-19.5l11.8-32.6l4.7,4.2l5-1L1605.6,89.9z"/>
				</g>
			</g>
		</g>
		<path class="st0" d="M377.2,99.1l24.9,12.6v12.1l28.7,11.8l54.3,1.9l45.6,12l10.8,21.1l-11.8,7.3l-30,98.5L424.6,256l-99.3-31.4
			v-17.3l-4.4-10.1l9.3-1.8l22.4-36.9l11.1-30.6l13.5-16.8L377.2,99.1z"/>
		<path class="st0" d="M982.3,116.6l39.4,0.3l17,10.2l10.2,1l24.8,6.6l5-4.1l3.1,4.3l-1,6.6h9.4l14.1,4.3l30.5-3.9l12.3,2.6
			l-34.3,20.7l-6.6,10.5l-10.9,5.6l-3.3,12.4l-1,18.6l-5.3,6.6l-8.2,1.4l4,16.2l-5,14.9l12.9,13.2h4.2l8.4,11l7.4,3.2l0.3,4.6
			l5.6,2.3l0.9,9.5l-121.8-0.3v-59.2l-1.3-20.7l0,0l-3-39.4l-7.2-35.7v-4.6l-2.9-10.8L982.3,116.6z"/>
		<path class="st0" d="M1587.2,276.2l5.3,21.8l-26.7,10.2l-9,7.4l-7.4,4.6l-0.7-2.9l2.5-3.9l-5.9-27.7L1587.2,276.2z"/>
		<path class="st0" d="M569.2,292.6l70.6,15.4l-6.2,31.2l48.5,9.2l-19,127.2l-130.7-23.5L569.2,292.6z"/>
		<path class="st0" d="M1522.5,315.8l20,6l-6.7,17.8l8.1-1.1l2.1,2.5l-0.6,17.4l-9.6,24.8l-1.3-0.8l1.1-5.4l-7,0.5l-5.2-2.8
			l-4.5-5.8l3.7-6.5l6.6-5.1v-6.5l-9.6-9l0.4-17.2l3.8-4.9L1522.5,315.8z"/>
		<path class="st0" d="M1198.3,324.5l11.2,20.7l7.1,93l-4.8,16.5l-5.2,21.4l-4.2,14.8l-5.6,6.5l-12.4-2l-4.4,8l-8.4-4.8l-3.2-17.1
			l-19.9-19l4.1-7.6l-1.7-10.2l-11.9-5.3l-19.6-20.2l-1.9-19.5l8.7-20.1l0.3-10.3l21.2-21.9l-2.1-5l-13.9-15.8L1198.3,324.5z"/>
		<path class="st0" d="M1461.8,395.4l4.5,1.1l4.1,6.6l8.5,2.8l4.6,6.3l-3.2,7l1.9,6.9l6.2,0.5l13.3,4.2l5.1,3.5l0.2,8.4l2.8,2.5
			l-10.7,0.5l11.2,6.3l-0.2,3.3l5.3,7.3l-8.9-4.3l-10.1-3.1l-9.6,4.7l14.3,1.1l14.6,8.8l6.7-2.3l4.5,1.4l1.9-2.2l0.4,7.8l-149,24
			l-55.4,6l13.3-11.8l0.9-4.1l19.1-16.8l1.3-7.6l13.8,9.9l7.4-11.3l6.3,3.9l4.7-5.2h11l2.8-12.5l6.7-6.7l8.3-3.6l-0.5-8.8l10.9,2.5
			l7.5-11l7.4-6.9l2.5-7l4.5-1.1L1461.8,395.4z"/>
		<path class="st0" d="M816.4,497.3l26.2,2.4l0.1-1.6l193.1,8.7l-0.3,14.7l0,0v0.5l0,0l5.8,94l-2.4,2.1l-15.4-10.3l-32.3,5.8
			l-1.9-4.4l-13-3.1l-2.8,4.3l-4.3-3.7l-18.1,3.5l-9.8-11.8l-6,3.3l-25.8-15.1l-19.5-4.5l2.9-64l-77.9-6.8L816.4,497.3z"/>
		<path class="st0" d="M1344.2,556l-3.6,7.3l55,57l9,14.5l2.4,7.3h8.3l1.9,2.8l-6.1,8.3l-0.2,6.3l-5.8,3.9l-0.7,12.5l-2.3,8.9
			l2.9,5.2l-13.7-0.6l-4,11.4l-2.8-4.2l-76.9,2.9l-3.4-6.8l-3.2-23.5l5.9-22.5l-11.1-19.7l-14.3-64.2l24.3-2.5L1344.2,556z"/>
		<path class="st0" d="M1134.9,635.6l4.1,21.5l-19.1,46.1l51-3.6l0.6,11.9l8,12.7l-13.4-4.8l-12.6,1l-9,6.4l9.7,2.9l3.7,4l11.9-4.6
			l6.4,0.1l7.6,3.1l0.3,7l-7.1,1.7l3.2,10.7l10.4,4.2l-11.2,6l-3.2-8.4l-10.6-6.4l1.9,11.1l-6.6,1.6l-5.4-8.6l-3.7,11.2l-10.7-3.2
			l-1.9-4l-9.2-1.1l-5.9-8.3l-1.6-9.3l-18,1.8l9.1,8.9l-12.2,0.4l-19.6-5l-4.6-3.7l-0.7-6.4l-1.1-0.1l-2.4,8.9l-13.1,2.9l3.8-10
			v-22.3l2.3-9.8l-4.4-6.8l-2.7-16l-8-16.3l0.2-26.7L1134.9,635.6z"/>
		<path class="st0" d="M561.2,57.2l19.2,5.1L572,89.2l15.8,25.4l3.3,14.7l2.6,5.9l2.6,11.6l-6.2,14l-2.5,15.5l7.8-3.8l5.5,28.6
			l12,18.7l18.9,2.7l14.2,2.3l4,4.3l6.8-0.3L640.1,307l-139.3-30.4l29.9-98.1l12.3-7.6l-11.3-22.1L561.2,57.2z"/>
		<path class="st0" d="M1573.3,169.4l25.6,69.1l4.3,1.9l-1.5,1.8l-3.5-0.3l-4.5,3.5l-0.6,2.1l-28.6,6.8l-0.1-7l-0.8-5.6l-1.5-10.7
			l2.3-16.2l-1.3-9.6l6.3-5.9l1.1-6l-2.5-4.8l-0.3-11.1l0,0l-0.3-4.5l1.6-2.3L1573.3,169.4z"/>
		<path class="st0" d="M1121.7,184.3l3.7,2.8l-3.1,8.2l11.3-0.7l10.7,8.8l10.8-0.6l29.9,14.5l12.1,23.9l-6,11.8l-5.7,9.3l1.9,5.1
			l4.7-10.9l10.7-11l9.6-16.6l-0.2,4.8l-10.7,27v4.2l-7.8,26.4l5.8,25.4l-1.2,6.9l-67.5,2.2l-11.3-9.4l1.6-13.5l-3.4-7.1l-1-10.7
			l-5.6-2.3l-0.3-4.6l-7.7-3.4l-8.6-11.2h-4.3l-12.1-12.4l4.8-14.6l-3.8-15.3l7.5-1.3l5.8-7.2l1-18.5L1121.7,184.3z"/>
		<path class="st0" d="M1523.8,190.6l6,19.4l-0.2,11.2l4.9,17.6l2.3-2.5l6.4,23.5l0.9,25.5l5.9,27.9l-2.5,3.9l0.9,3.9l-2.7,3.6
			l0.8,4.1L1560,318l18.8-10.9l1.4,3.6l-4,4l5.8-0.6l7.6-6.8l2,2.5l-26.5,20l-1.4-1.1l11.8-8.9l-4.4-0.4l-25.1,15.9l-2.7-2.5
			l1.6-8.1l-1.3-3.6l-21.8-6.5l-7.8-3.1l-2.5-6.4l-10.2-8l-104.1,20.6l-1-5.6l18.7-22.6l-3.2-5.9l-3.6-4.5V274l26.3-7.6l7.6,2.5
			l14.5-3.5l14.6-12.8l-4-9.4l1.9-4.6l-5.4-2.7l22.1-34.2l6.7-2.5L1523.8,190.6z"/>
		<path class="st0" d="M811.6,300.9l99.6,6.7l21.3,8.2l22.8,7.6l15.1-4.9l23.2,9l4.6,18.1l6.5,18.5l1,18.6l8.2,9.2l4,14.3
			l-165.8-5.9l2.7-31.6l-50.3-4.9L811.6,300.9z"/>
		<path class="st0" d="M1373.6,322.5h5.6l9.5,64.8l-5.3,2.2l-9.8,19l-5.9,1l-2.1,11.5l-7.1,0.9l-0.9,8.7l-4.1,4.1l-0.4,5.2l-7.6-0.4
			l-9.7-7.2l-5.9,2.6l-12.4-1.4l-5.7-3.2l-24.8-5.4l-9.9-81.2l40.7-4.8l11,2.5l-7.1,4.5l7.7,0.9l8.4-6.5l7.8-4l4.8,0.9L1373.6,322.5
			z"/>
		<path class="st0" d="M1515.6,372.8l13,45.4l17.4-3l0.1,12.1l-2.3-5.2l-2.8,9.3l-13,5.8l1.8-4.5l-1.7-0.5l0.5-3.3l-3,0.2l-0.2-4.8
			l-4.4-0.8l-1.5,2.9l-5.8-4l1.1-4.2l-1.4-2.2l5.3,0.2l-8.4-6.9v-1.4l3.7,0.2l-0.9-4.3l0.7-6.9l-3.9-1.4l2.5-6.9l3.7-2.4v-2.1l0.9-3
			l-3.7-1.9l-2.8,3.2l-0.5,3.1l-3.3,3.6l-3.2,3.9h-4.5l4.1,4.9l-0.9,2l4.1,1.7l-3.7,5.6l1.1,1.9l-0.5,3.4l2.8,7.4l3.6,4.1l-1.2,1.3
			l-5.2-4.7l-1.3,3.3l6.8,5l2.4,0.1l0.9,2.5l1.8,1.8l-2.6,0.5l-0.9-2.7l-2.9,2.4l-5.1-3.5l-13.6-4.3l-5.5-0.5l-1.6-5.8l3.3-7.2
			l-5.2-7.1l-8.4-2.8l-4.1-6.7l-5-1.3l-3.6-6.6l-18.8,1.3l-11.3,8.4l-5.3,10.3l-3,1.5l-2.2-20.6L1515.6,372.8z"/>
		<path class="st0" d="M532.3,453.2L663,476.7l0,0l-27.1,180.8l-55.5-8.3l-99.1-56.8l4.4-7.1l9.5-1.4l-5.7-15.1l6.1-15.3l14.1-18
			l-7.1-22.5l3.2-6.5l-2.9-14.4l6-18.9l11,0.9l6.4,6.4L532.3,453.2z"/>
		<path class="st0" d="M1379.2,499.6l-4.7,7.9l-6.3,4.7l-2.3,3.6l-15,11.2l-20.5,17l-11.2,4.1l-13.8,10.8l-25.3,2.9l-72.4,3.9h-49.9
			l2.1-7.4l9.4-18.2v-8.5l2.2-10.6l37.3-3l-3.2-4.2l116-8l-0.1,0.1L1379.2,499.6z"/>
		<path class="st1" d="M815.4,514.2l75.3,6.4l-2.9,63.9l20.2,4.6l26.2,15.4l5.7-3.2l9.7,11.6l18.2-3.6l4.8,4.1l3-4.8l11.7,2.8l2,4.7
			l32.7-5.9l15.8,10.5l3-2.7l8.4,3.3l-0.3,15.1l0,0l-0.2,28l8.1,16.3l2.8,16.1l4.3,6.5l-2.2,9.5V735l-4,10.5l-24.1,9V742l-8.8,3.7
			l6.4,15l-2.4,5.6l-5.6-1.8l-21.6,11.1l-20.5,11.1l-17.8,14.2l-8.4,18.8l-6.9,7.6l10.7,32l-1.4,7.5l-12.5-7.5l-23.3,0.3l-13.4-12.8
			l-10.3-14.5l-4.2-23.5l-10.1-7.8L867,765l-17-22l-41-12.5l-10.7,10l-8.5,17.7L754.1,735l-10.7-35l-34.9-44.3l1.5-6.3l93.2,10.7
			L815.4,514.2z"/>
		<path class="st1" d="M1393.1,692.7l13.4,0.6l3.2,17.8l12.8,29.9l-3,2.4l12.6,14.9l-5.6,0.3l17.3,30.3l7.4,16.2l3.9,11.4l3.9,9
			l0.6,15.2l-5.2,4.8l-3,14.3l2.2,4.7l-10.2,8.7l-12.7-0.9l1.3-3.4l4.6-3.8l-8.2-2.6l5.7-5.7l-0.7-5.9l-13.8-1.6l-22.1-14.2l-2.5-9
			l-7-7.4l-5.9-9.6v-6l5.2-6.2l0.8-12l-6.9,7.7l-6-3.8l2.6-33l-6.9-10.3l-7.9,2.7l-1.2-9.2l-7.7-3.9l-0.3-4.7l-11.4-2l-1.6-5.8
			l-8.3-2.8l-13.8,10.8l-19.3,6.7l-9.4-13.9l-5.3-2.4l-5.9-3.4l-11.3,0.9l-7.3,2.8l-13.7,2.1l2.1-11.8l-11.1,9.4l-2.1-20.8l67.4-4.6
			l3.4,7l78.5-2.7l3.7,5.5L1393.1,692.7z"/>
		<path class="st0" d="M525,812.3l11.8,10.8l13.9,9.7l30.4,8.7l12,4.9L584.4,975l16.3,5.1l10.3,13.5l13.8-5.5l31.4,33.2l11.3,23.1
			l-8.7-2.8l-10.5-17.8l-22.7-29.3l-3.5,8.9l-10.8,1.3l-9.5-12.2l-19.4-11.6l-23.8-6.4L539.2,958l-4.3,14.8l-25.8,8.3l5.8-20.6
			l-6.8-2.6l-13.7,12.8l-0.9,10.5l-25,18.2l-45.7,12.8l-9.1-0.4l8.6-7.8l30.8-12.4l17.6-19.6l-16.3,5.6l-9.6-12.8l-11.4,1.8l4-16.1
			l-12.4-6.9l4.5-12.2l-7.2-14.5l14.8-8.3l9.1,9.1l2.9-8.8l20.3-5.5l1.5-18.2l-11.6,3.4l-15.6-8.5l-0.5-9.5l-3.9-8.2l24.5-5.2
			l2.7,10.8l10.8,2l-3-11.5l-4.5-5.4v-10.5l-5.7-11l13.6-3.1l16.1-10.6L525,812.3z"/>
		<path class="st0" d="M407,873l2.4,5.8l4.9,0.3l3.8,11.1l-5.9-1.1l-3.2-7.4l-6.4-2.1L407,873z"/>
		<path class="st0" d="M376.6,902.7l-3.1,7.8l3.2,5.9l4.6-4.6l-3.2-3l-0.5-6L376.6,902.7z"/>
		<path class="st0" d="M416.3,931.3L407,932l0.3,0.7l2.7,7.2l9.2-1.1L416.3,931.3z"/>
		<path class="st0" d="M371.5,953l-11,2.4l0.9,0.7l5.6,4.4l5.7-4.9L371.5,953z"/>
		<path class="st0" d="M367.2,967.4l-0.3,0.4l-2.1,3.6l5.4,1.8l2-3.2L367.2,967.4z"/>
		<g>
			<g>
				
					<rect id="SVGID_00000014598163301691202150000000808349609302721933_" x="238" y="969.3" class="st2" width="8.2" height="5.1"/>
			</g>
			<g>
				<g>
					<rect id="SVGID_1_" x="238" y="969.3" class="st2" width="8.2" height="5.1"/>
				</g>
				<g>
					<defs>
						<rect id="SVGID_00000174586613553947145580000007571523846093742995_" x="238" y="969.3" width="8.2" height="5.1"/>
					</defs>
					<clipPath id="SVGID_00000166635552986421407960000010224075335223106723_">
						<use xlink:href="#SVGID_00000174586613553947145580000007571523846093742995_"  style="overflow:visible;"/>
					</clipPath>
					<g style="clip-path:url(#SVGID_00000166635552986421407960000010224075335223106723_);">
						<path class="st0" d="M238.2,969.6l0.6,0.9l1.8,2.7l4-0.1l1.4-3L238.2,969.6z"/>
					</g>
				</g>
			</g>
		</g>
		<path class="st0" d="M247.7,978.1l-0.4,1.8l-0.8,3.5l0.9,5.9l4.2-1.1L247.7,978.1z"/>
		<path class="st0" d="M256.1,980.8l-0.2,0.7l-0.6,2.6l2.6,2.7l1.7-4.2L256.1,980.8z"/>
		<path class="st0" d="M497.4,987.8l-4.5,4.6l0.3,0.4l1.9,2.3l3.2-1.3l4.2-2.3L497.4,987.8z"/>
		<path class="st0" d="M271,993.6l-0.1,1l-0.4,2.9l-2.5,1.3l5.4,3.6l1.8-5L271,993.6z"/>
		<path class="st0" d="M486.7,994.4l0.3,4l-0.7,2l-2.7-2.3l-6.6,3.2l0.8,5.7l3,0.3l0.1,4.4l13.4-8.1l5.8-3.9L486.7,994.4z"/>
		<path class="st0" d="M276.7,999.3l-0.1,0.4l-1.1,3.7l3.8-0.3l2.4-3.8L276.7,999.3L276.7,999.3z"/>
		<path class="st0" d="M286.8,1001.6l-0.2,0.9l-0.6,3.3h3.1l0.7-1.7L286.8,1001.6z"/>
		<path class="st0" d="M282.1,1001.8l-4.7,3.9l1.1,0.2l5.2,1.1l1.3-3.8L282.1,1001.8z"/>
		<path class="st4" d="M628.6,1006.3l0.3,1.6l2.6,14.3l1.8,0.9l1.2-4.6l2.5-4.8L628.6,1006.3z"/>
		<path class="st4" d="M621.5,1007.3l-0.3,0.4l-3.2,4.2l5.1,6.5l4.4-1.1l0.5-6.1L621.5,1007.3z"/>
		<path class="st4" d="M402.8,1007.5l-9.8,1.3l0.4,0.7l2.2,4.1l6,2.3l1.9-4.3L402.8,1007.5z"/>
		<path class="st4" d="M293.2,1008l-0.2,0.5l-0.6,1.6l2.5,2.3l5.8,1.6l5.3-2.6l-3-2.7l-3.6,1L293.2,1008z"/>
		<path class="st4" d="M404.9,1008.2v2.6l2.6,3.5l3.4-2.5l-0.2-3.1h-0.5L404.9,1008.2z"/>
		<path class="st4" d="M478,1009.2l-5.8,2.4l0.4,0.5l1.6,2.5l3.3-0.8l1.7-2.5L478,1009.2z"/>
		<path class="st4" d="M389,1009.3l-0.2,0.8l-1.1,4.1l2.5,3.7l4.1-4.5L389,1009.3z"/>
		<path class="st4" d="M383.6,1012.5l-4.3,0.7l-3.1-0.5l-0.2,0.3l-1.2,2l2.5,2.4l2.5-1l1.2,1l3.1-2L383.6,1012.5z"/>
		<path class="st4" d="M371.6,1012.6l-4.8,0.5v2.6l-1.1,2.8l-6.5,1.6l7.4,2.7l8.1-6.4L371.6,1012.6z"/>
		<path class="st4" d="M302.7,1014.3l0.8,0.9l3.1,3.7l4.1-0.2l-3.3-4.4H302.7z"/>
		<path class="st4" d="M358.9,1015l-14.4,6.1l1.2,0.5l4.7,1.9l11.1-6.1L358.9,1015z"/>
		<path class="st4" d="M314.1,1016v0.8l0.2,3.6l3.2-0.8l-0.1-2.6L314.1,1016z"/>
		<path class="st4" d="M468.5,1016.9l-6.7,3.8v0.3l0.3,2.6l5.3-0.3l1.7-3.1L468.5,1016.9z"/>
		<path class="st4" d="M329.4,1019.5l-0.1,0.5l-0.8,3.5l3.7,0.2l3.3-2.8L329.4,1019.5z"/>
		<path class="st4" d="M624.5,1020l-0.2,0.3l-3.2,4.4l5.7,3.6l5.8,6.8l-1-9.8l-2.8-4.6L624.5,1020z"/>
		<path class="st4" d="M341.2,1021.1l-4.2,0.2l-0.2,0.2l-1.5,2.2l2.2,0.8l3.6,0.8L341.2,1021.1z"/>
		<path class="st4" d="M642,1022.3l-7.5,1.4v0.4l-0.3,7.3l4.9-0.8l2.7-2.8l-1.9-1.8l3.9-0.1L642,1022.3z"/>
		<path class="st4" d="M646,1028.2l-0.4,0.3l-3.8,3l7.3,6l2.2-3.5L646,1028.2z"/>
		<path class="st4" d="M639.9,1032.2l-0.1,0.9l-0.5,5l3,6.8l4.7,4.9l3.7,4.2l4.1-0.9l-1.3-6l-4.2-4.7l-1.6-5.1L639.9,1032.2z"/>
		<path class="st1" d="M439.2,26.1L559.1,57L530,147.5l-45.1-11.8l-53.7-1.8l-27.6-11.3v-11.7l-1.4-5.8L385,96.2l-7.2-2.9l1-11.8
			l1.7-0.3v11.1l7.1-9.3l-1-5l-4-4l7.8-24.6l-1.4-8.8l1.3-13.6l18.6,17.3l21.3,5.4l-4.5,27.6l1,0.4l9.5-15.8l6.4,1l-1.9-12.6
			l1.4-15.2L439.2,26.1z"/>
		<path class="st0" d="M1566.5,178.9l0.3,10l2.4,4.7l-0.9,5.3l-6.4,6.1l1.3,9.9l-2.3,16.2l1.5,10.8l0.8,5.5l0.1,7.1l-19.2,4.5
			l-6.8-25l-2.3,2.5l-4.3-15.5l0.2-11.3l-6.1-19.5L1566.5,178.9z"/>
		<path class="st0" d="M823,204.2L992.2,215l1.3,20.8v59.1l-6.3-0.4l5.7,9.9l-0.3,11.7l0.9,10l-23-8.9l-15.1,4.9l-22.5-7.5
			l-21.4-8.2l-99.8-6.7l7.3-64L823,204.2z"/>
		<path class="st0" d="M321.1,226.8l99,31.3l-25,80.2l3.5,2.9l-6.4,12.9l105.6,160.3l7,22.1L491,554.2l-6.3,15.9l4.1,12l-7.7,0.5
			l-66.8-4.2v-5.2l-5.3-0.3l5.7-14.5l-11.1-13.7l2-9.2l-18.7-0.3l5-10.7l-31.6-24l-21.6-6.5l-3.8-8.7l2.3-27.7l-9.5-11.8l-10-27.1
			l-0.4-8.3l-5.8-3.5l3.5-27.8l2.9-4l7.4,4.5l-1.7-13.5l20.2-1.3v-1.1l-20.3-2.9l-10.7,5.8l-5.4-2.1l-2.9-4.3l6.8-7.1l-11.6-23.6
			l-7.1-2.1l7.9-7.2l4-20.5l-8-21.9l13.5-15.1l1.6-10.2l6.5-14.1l-3.5-9.1L321.1,226.8z"/>
		<path class="st0" d="M1596.7,273.4l3.8,6.7l5,1.8l2.9,6l-4.1,2.2l-2.6-5.8l-2.4,1.7l1.2,6.9l-7.1,4.4l-5.2-21.5L1596.7,273.4z"/>
		<path class="st0" d="M1275.7,340.5v2.7l10.1,82.1l-1.6,9.7l-13,7.8l-0.7,6.9l-12.2,14.1l-8.9-6l-4,10.1l-8.9,1l-4.4,2.5l-9.3-2.6
			l-8.2,2l-1.3,4.5l-5.4,0.2l5-20.7l4.9-16.6l-7.1-92.4l5.9,2.6l7-4L1275.7,340.5z"/>
		<path class="st1" d="M684.9,350l119,15.7l0.6,0.1l46.9,4.1l-2.4,31.2l-9.3,94.8l-0.1,0.7l-0.2,0.7l-24-2.2l-148.8-21L684.9,350z"
			/>
		<path class="st0" d="M1518.3,369.7l4.1,5.4l-1.2,2.6l3.2,1.4l-0.3,1.7l6.2,6.4l2.3,7.4l3.3,2.6l1.3,3.7l6.1,1.6l1.1,2.4l-3.3,0.6
			l2.1,2.5l-4.1,3.1l7.6,0.5l-0.7,2.6l-16.7,2.8l-12.8-44.6L1518.3,369.7z"/>
		<path class="st0" d="M1388.8,388.4l0.7,4.9l27.2-4.4l2.3,22.2l4.8-2.4l5.4-10.4l10.8-8.1l17.8-1.3l3.2,5.9l-8.9,10.6l-4.7,1.2
			l-2.6,7.3l-7.3,6.9l-7.2,10.5l-11.6-2.6l0.5,9.5l-7.8,3.3l-7.1,7.1l-2.7,11.9H1391l-4.4,4.9l-6.5-3.9l-7.3,11.2l-13.5-9.8
			l-7.6-7.8l-0.4-7.7l2.6-6.2h0.1l0.5-5.9l4.1-4.1l0.9-8.2l7.1-0.9l2.1-11.5l5.6-0.9l9.9-19.1L1388.8,388.4z"/>
		<path class="st0" d="M1106.6,390.8l9.8,9.1l1.9,19.8l20,20.7l11.5,5.1l1.5,9.3l-4.3,8l20.3,19.3l3.2,17.3l9.2,5.2l2.4,5.7
			l-3.2,3.8l-7.7,0.3l-0.7,6l-2.2,10.6l-11.1,0.6l-2.6-12.6l-118.1,2.6l0.4-15.2l-1.9-68.2l-8.2-9.5l5.1-11.5l-13.1-10.7l-4-14.3
			L1106.6,390.8z"/>
		<path class="st0" d="M1522.4,477.2l7.8,14.1l-9.2-10.4l-2.7,2.7l3.6,5.8l-2.1,1.7l-7.2-2.7l-1.6,3.5l1.4,1.5l-8.8,3.8v5.2
			l11.9-4.6l4-2.5l1.5,7.5l4.3,0.2l-0.3-8.8l1.3-0.5l3.2,8.2l-1.9,4.1l-12.8,0.8l2.2,2.7l7.4,0.1l0.4,3.2l-5.7,3.4l-1.8,1.3
			l-6.3-5.8l-3.1,0.4l1.5,4.7l-6.4-0.7l-4.2,4.5l6.5,1.3l10.5-1.3l-1.8,3.7l-4.5,2.1l-8.2-2.7l3.8,5.3l6.2,0.6l7-4.3l4.6,0.2
			l-1.5,6.1l-9.8,2.2l-7.8,3.5l-6.5,1.2l-7.7,7.4l5.8,0.3l-4.7,5.1l0.6,2.2l-4,5.9l1,8l-8.6-9.1l1.9,8.7l-7.1-1.2l-1.8,3.8l-3.5,1.5
			l-32.9-25.7l-24.4,3.7l-14.5-7.8l-31.9,2.8l-17.3,8.8l-38.3,4.8l10.7-9l10.6-3.4l23.4-19l14.3-10.6l2.2-3.4l6-4.5l4.9-8.3
			L1522.4,477.2z"/>
		<path class="st0" d="M1157.4,566.8h49.9l2.7,6.3l-3.2,98l2.2,48.5l-19.4,0.3l-8.8,4.7l-8.4-13.4l-0.7-12.8l-50.3,3.5l18.6-44.8
			l-4.2-22.1l2.6-10.4l-3.9-14.9L1157.4,566.8z"/>
		<path class="st0" d="M767.4,916.3l-6.3,4v0.3l0.3,5.1l5.6,5.2l10.4-3.3l1.1-11L767.4,916.3z"/>
		<path class="st0" d="M750.3,922.2l-7.1,8.6l1.6,3.1l5.7-3.3l2.1-5.7L750.3,922.2z"/>
		<path class="st0" d="M824.8,935.4l-3.9,4.7l-6.1,0.2l0.2,0.7l1.8,6.7l2.5,7.2l5.9-4.1l3.8,3.1l7.8-1.1l-1.5-5.7l-6.1-3.6
			L824.8,935.4z"/>
		<path class="st0" d="M848.4,955.8l-0.2,0.2l-4,6l21.8,0.7l6.5-5.7L848.4,955.8z"/>
		<path class="st0" d="M873.9,963.8l5,4.7l5.8-1.5l10.4,6.8l-1.6,3.3l-11.8,0.3l-2.5-6.3l-7.9-3.5L873.9,963.8z"/>
		<path class="st0" d="M859.3,967.5l5.9,1.2l1.4,4l-3.2,2.1l-3.2-4.8L859.3,967.5z"/>
		<path class="st0" d="M875.2,978.1l-6.5,3l0.7,0.6l3.7,3.2l5.1-2.7L875.2,978.1z"/>
		<path class="st0" d="M901.5,993.1l25.3,15.3l6.5,10l5.6,4.1l-9.6,5.7l-13.1,3.9l-9.8,12l-7.5-7.8l-0.7-15.2l-4.2-7.2l-0.3-4.1
			l8.1-4.9L901.5,993.1z"/>
		<path class="st0" d="M834.8,107.1l146.4,9.4l-2.2,8l3,10.9v4.6l7.2,35.8l2.9,38l-169-10.8L834.8,107.1z"/>
		<path class="st0" d="M1185.4,158.8l2.2,4.6l-14.8,10l0.7,14.6l5.8-6.2l17.9,9.3l9.4-0.3l9.9,4.1l1.1-5.9l13.3-7l19.4-4.7l-0.3,8.8
			l4.7,1.8l9.9-1.9l14.5,14.5l-19.4,1.3l-0.6,6l-4.1-4.7l-13.7-4l-18.2,8.6l-4.9,12.3l-1.4-9.4l-10.2,4.9l-7.3,11.9l-2,12.1
			l-11.7-23l-30.5-14.7l-10.6,0.6l-10.2-8.3l3.3-6.2l26.4-10.5v-6.5L1185.4,158.8z"/>
		<path class="st0" d="M1265.9,208.7l7.3,5.6l10,3.2l9.2,0.9l6.5,9.9l-3.5,0.9l5.4,17.9l-2.9,15.2l-6.9,2.7l-2.5,9.9l7.7,3.3
			l7.8-7.6l-0.4-5.1l3.4,0.6l6.6-4.6l4.8,1.5l7.4,14.4l3,14.9l2.7,10l-2.3,6.6h-4.2l-3.3,18.8l-4.7,10l-40.4,4.8v-3.2l-52.2,4.2
			l10.6-12.3l3.3-32.5l-9.9-14.7l-1.4-11.7l3.4-14.2l-1.3-9.4l9.2-7.9l8.4-10.5l-0.2,11.6h5.1l1.7-7.4l-1.1-7.3l8.5-5.6l-2.1-7.4
			L1265.9,208.7z"/>
		<path class="st0" d="M660.9,212.8l157,22.8l-14.6,127.8l-120.5-16l-48-9.1l6.1-30.6l17.2-80.1l0,0L660.9,212.8z"/>
		<path class="st0" d="M1598.5,243l3.1,0.3l1.9,4l4.2,1.8l-6.6,11.5l3,3l2.6-1.4l3.8,0.6l4.3,5.2l0.2,2.6l4.3,4.6l5.1,1.9l8.2-5
			l-4.1-7.1l-3-1.1l1.2-1.3l6.6,5.9l2.1,9.1l-2.7-1.7l-12.5,6.9l-3.2-5.4l-7.6,9.8l-2.9-6.1l-5.1-1.8l-4-7.1l-9.7,2.8l-42.4,9.5
			l-0.9-24.4l49.6-11.7l0.7-2.4L1598.5,243z"/>
		<path class="st0" d="M424.8,257.2l75.1,20.3l0.5,0.1l0,0l67.7,14.8l-36.8,160l-0.1,0.5l0,0l-5.5,25.4l-5.3-5.3l-12.3-1l-6.3,20
			l2.9,14.2l-2.7,5.5l-104.8-159l6.5-13.1l-3.6-3L424.8,257.2z"/>
		<path class="st0" d="M989.1,295.8l5.5,0.3l0,0l122.1,0.3l3.2,6.5l-1.6,13.8l11.9,9.9l14.5,16.5l1.8,4.1l-21,21.6l-0.3,10.5
			l-8.4,19.3l-9.6-9l-92.5,1.3l-7.8-8.8l-0.9-18.4l-6.5-18.6l-4.7-18.3l-1-10.7l0.3-11.9L989.1,295.8z"/>
		<path class="st0" d="M1501.1,298.2l9.6,7.6l2.5,6.5l8,3.2l1.2,3.8l-3.6,4.7l-0.5,18.1l9.7,9v5.5l-6.3,5l-3.9,7l-2.2,3.2
			L1390.4,392l-0.6-4.1l0,0l-9.7-65.7l15.1-9.5l1.1,6.2L1501.1,298.2z"/>
		<path class="st0" d="M851.9,401.2l166.4,5.9l12.4,10.2l-5,11.4l8.4,9.8l1.8,67.2l-193-8.7L851.9,401.2z"/>
		<path class="st0" d="M1286.8,425.9l24.4,5.4l5.8,3.2l12.9,1.4l5.6-2.5l9.5,7l7.7,0.4l-2.5,6.1l0.5,8.4l7.8,8l-1.3,7.8l-19,16.8
			l-0.9,4.1l-14.2,12.6l-119.4,8.2l3.2,4.2l-35,2.8l0.5-4.4l7.2-0.3l3.9-4.7l-2.6-6.2l4.2-7.5l12.3,1.9l6.1-7.1l4.1-14.7l6.5-0.3
			l1.3-4.6l7.3-1.9l9.5,2.6l4.6-2.6l9.3-1l3.8-9.4l8.6,5.7l13.1-15.1l0.6-6.7l13-7.8L1286.8,425.9z"/>
		<path class="st0" d="M664.1,476.9l151.2,20.3l-1.3,15.3l-12.2,144.7L708,647.1l-1.3,7.4l-47-7.5l-2.9,13.7l-19.7-3.1L664.1,476.9z
			"/>
		<path class="st0" d="M1153.8,520l2.6,12.7l11.9-0.7v7.7l-9.4,18.1l-2.2,8.1l-23.1,43.7l3.9,15l-2.5,9.8l-83.7,0.8l0.3-15.8
			l-9.1-3.6l-5.8-93.2L1153.8,520z"/>
		<path class="st0" d="M1396.8,544.8l15.4,8.3l25.8-3.9l34.3,26.8l-11.2,13.4l-1.2,7.4l-6.1,10.2l-5.5-4.3l-1.7,10.4l-15.4,14.1
			l-3.1-1.3l-10.9,3.1l8.6,6.1l-14.2,2.3l-5.8-7.1l-8.3-11.7l-54.2-55.1l4-7.6l16.1-8L1396.8,544.8z"/>
		<path class="st0" d="M1279.7,562.9l14.2,64.9l11,19l-5.2,22l3.2,23.2l-69.8,4.6l2.3,22.5l-12.7,4l4.9-4.4l-6.6-25.3l-1.1,0.1
			l-2.6,23.4l-7.1,2.5l-2.3-48.3l3.2-98.2l-2.7-6.2L1279.7,562.9z"/>
		<path class="st5" d="M1479.3,405.2l4.5-0.7l0.7,4.5l-4.5,0.7L1479.3,405.2z"/>
	</g>
</g>
<rect x="346.9" y="406.4" class="st6" width="59.7" height="32.2"/>
<text transform="matrix(1 0 0 1 346.8934 427.8627)" class="st7 st8 st9">CA</text>
<rect x="429.6" y="77.6" class="st6" width="68.4" height="35.7"/>
<text transform="matrix(1 0 0 1 429.6457 99.0972)" class="st10 st8 st9">WA</text>
<rect x="393.9" y="184.9" class="st6" width="76.6" height="34.1"/>
<text transform="matrix(1 0 0 1 393.901 206.3312)" class="st10 st8 st9">OR</text>
<rect x="594.1" y="394.2" class="st6" width="59.7" height="32.2"/>
<text transform="matrix(1 0 0 1 594.0707 415.6929)" class="st10 st8 st9">UT</text>
<rect x="459.3" y="347.2" class="st6" width="59.7" height="32.2"/>
<text transform="matrix(1 0 0 1 459.2622 368.7142)" class="st10 st8 st9">NV</text>
<rect x="551.2" y="533.1" class="st6" width="59.7" height="32.2"/>
<text transform="matrix(1 0 0 1 551.1771 554.5865)" class="st10 st8 st9">AZ</text>
<rect x="877" y="671" class="st6" width="59.7" height="32.2"/>
<text transform="matrix(1 0 0 1 876.9644 696.0389)" class="st10 st8 st11">TX</text>
<rect x="705.4" y="563" class="st6" width="67.4" height="40"/>
<text transform="matrix(1 0 0 1 705.3904 584.4584)" class="st10 st8 st9">NM</text>
<rect x="737" y="415.1" class="st6" width="73.5" height="35.7"/>
<text transform="matrix(1 0 0 1 737.0494 436.6291)" class="st10 st8 st9">CO</text>
<rect x="899.2" y="351.1" class="st6" width="59.7" height="32.2"/>
<text transform="matrix(1 0 0 1 899.1771 372.544)" class="st10 st8 st9">NE</text>
<rect x="873.1" y="148.9" class="st6" width="93.7" height="37.4"/>
<text transform="matrix(1 0 0 1 873.1345 170.3312)" class="st10 st8 st9">ND</text>
<rect x="888.5" y="253" class="st6" width="59.7" height="32.2"/>
<text transform="matrix(1 0 0 1 888.4537 274.5015)" class="st10 st8 st9">SD</text>
<rect x="710.8" y="280.6" class="st6" width="78.9" height="40"/>
<text transform="matrix(1 0 0 1 710.7516 302.0754)" class="st10 st8 st9">WY</text>
<rect x="691.6" y="147.3" class="st6" width="80.1" height="33.9"/>
<text transform="matrix(1 0 0 1 691.6027 168.7988)" class="st10 st8 st9">MT</text>
<rect x="570.8" y="226.7" class="st6" width="59.7" height="32.2"/>
<text transform="matrix(1 0 0 1 570.8367 248.2036)" class="st10 st8 st9">ID</text>
<rect x="1076.7" y="663.8" class="st6" width="78.9" height="40"/>
<text transform="matrix(1 0 0 1 1076.677 685.3097)" class="st10 st8 st9">LA</text>
<rect x="1072.6" y="566.8" class="st6" width="78.9" height="40"/>
<text transform="matrix(1 0 0 1 1072.5918 588.2884)" class="st10 st8 st9">AR</text>
<rect x="1052.2" y="443.2" class="st6" width="78.9" height="40"/>
<text transform="matrix(1 0 0 1 1052.1664 464.7139)" class="st10 st8 st9">MO</text>
<rect x="1028.7" y="322.7" class="st6" width="78.9" height="40"/>
<text transform="matrix(1 0 0 1 1028.677 344.2033)" class="st10 st8 st9">IA</text>
<rect x="1013.4" y="190" class="st6" width="78.9" height="40"/>
<text transform="matrix(1 0 0 1 1013.3578 211.4373)" class="st10 st8 st9">MN</text>
<rect x="929.6" y="529" class="st6" width="78.9" height="40"/>
<text transform="matrix(1 0 0 1 929.6132 550.5012)" class="st10 st8 st9">OK</text>
<rect x="909.2" y="435.1" class="st6" width="78.9" height="40"/>
<text transform="matrix(1 0 0 1 909.1876 456.5437)" class="st10 st8 st9">KS</text>
<rect x="1565.1" y="341" class="st6" width="36.9" height="20"/>
<text transform="matrix(1 0 0 1 1565.1104 360.3049)" class="st2 st8 st12">NJ</text>
<rect x="1421.1" y="450.2" class="st6" width="78.9" height="40"/>
<text transform="matrix(1 0 0 1 1421.11 471.729)" class="st10 st8 st9">VA</text>
<rect x="1370" y="416.5" class="st6" width="78.9" height="40"/>
<text transform="matrix(1 0 0 1 1370.0461 438.0269)" class="st10 st8 st9">WV</text>
<rect x="1425.2" y="336.9" class="st6" width="78.9" height="40"/>
<text transform="matrix(1 0 0 1 1425.1951 358.3673)" class="st10 st8 st9">PA</text>
<rect x="1389.5" y="572.8" class="st6" width="78.9" height="40"/>
<text transform="matrix(1 0 0 1 1389.4503 594.2822)" class="st10 st8 st9">SC</text>
<rect x="1420.1" y="507.4" class="st6" width="78.9" height="40"/>
<text transform="matrix(1 0 0 1 1420.0886 528.9205)" class="st10 st8 st9">NC</text>
<rect x="1232.2" y="524.8" class="st6" width="78.9" height="40"/>
<text transform="matrix(1 0 0 1 1232.1738 546.2822)" class="st10 st8 st9">TN</text>
<rect x="1260.8" y="469.7" class="st6" width="78.9" height="40"/>
<text transform="matrix(1 0 0 1 1260.7695 491.1332)" class="st10 st8 st9">KY</text>
<rect x="1310.8" y="373.7" class="st6" width="78.9" height="40"/>
<text transform="matrix(1 0 0 1 1310.812 395.1332)" class="st10 st8 st9">OH</text>
<rect x="1233.2" y="386.9" class="st6" width="78.9" height="40"/>
<text transform="matrix(1 0 0 1 1233.1951 408.4098)" class="st10 st8 st9">IN</text>
<rect x="1259.7" y="289.9" class="st6" width="78.9" height="40"/>
<text transform="matrix(1 0 0 1 1259.7483 311.3885)" class="st10 st8 st9">MI</text>
<rect x="1119.8" y="247" class="st6" width="78.9" height="40"/>
<text transform="matrix(1 0 0 1 1119.8333 268.4949)" class="st10 st8 st9">WI</text>
<rect x="1158.1" y="402.2" class="st6" width="78.9" height="40"/>
<text transform="matrix(1 0 0 1 1158.1312 423.729)" class="st10 st8 st9">IL</text>
<rect x="1387.4" y="760.7" class="st6" width="78.9" height="40"/>
<text transform="matrix(1 0 0 1 1387.4078 782.197)" class="st10 st8 st9">FL</text>
<rect x="1328.2" y="621.8" class="st6" width="78.9" height="40"/>
<text transform="matrix(1 0 0 1 1328.1738 643.3035)" class="st10 st8 st9">GA</text>
<rect x="1226" y="616.7" class="st6" width="78.9" height="40"/>
<text transform="matrix(1 0 0 1 1226.0461 638.1971)" class="st10 st8 st9">AL</text>
<rect x="1155.6" y="619.8" class="st6" width="78.9" height="40"/>
<text transform="matrix(1 0 0 1 1155.578 641.2609)" class="st10 st8 st9">MS</text>
<rect x="1593.7" y="141.8" class="st6" width="78.9" height="40"/>
<text transform="matrix(1 0 0 1 1593.7053 161.872)" class="st10 st8 st13">ME</text>
<rect x="1478.3" y="252.1" class="st6" width="78.9" height="40"/>
<text transform="matrix(1 0 0 1 1478.3013 273.6014)" class="st10 st8 st9">NY</text>
<rect x="1559" y="388" class="st6" width="44.1" height="20"/>
<text transform="matrix(1 0 0 1 1558.9823 407.2835)" class="st2 st8 st12">DE</text>
<rect x="1604.9" y="315.4" class="st6" width="35.9" height="23"/>
<text transform="matrix(1 0 0 1 1604.9403 334.7728)" class="st2 st8 st12">C</text>
<rect x="1623.3" y="285.8" class="st6" width="30.8" height="23"/>
<text transform="matrix(1 0 0 1 1623.3234 305.1556)" class="st2 st8 st12">RI</text>
<rect x="1546.7" y="449.2" class="st6" width="47.1" height="23"/>
<text transform="matrix(1 0 0 1 1546.7277 468.5598)" class="st2 st8 st12">MD</text>
<rect x="1633.5" y="235.8" class="st6" width="44.1" height="22"/>
<text transform="matrix(1 0 0 1 1633.5353 255.1135)" class="st2 st8 st12">MA</text>
<rect x="1487.5" y="167.4" class="st6" width="38" height="22"/>
<text transform="matrix(1 0 0 1 1487.4933 186.688)" class="st2 st8 st12">VT</text>
<rect x="1523.2" y="134.7" class="st6" width="44.1" height="23"/>
<text transform="matrix(1 0 0 1 1523.2384 154.0066)" class="st2 st8 st12">NH</text>
<line class="st14" x1="1506" y1="414" x2="1543.8" y2="447.7"/>
<line class="st14" x1="1534.6" y1="392.6" x2="1557.1" y2="392.6"/>
<line class="st14" x1="1537.7" y1="350.7" x2="1564.3" y2="347.7"/>
<line class="st14" x1="1572.4" y1="293.5" x2="1604.1" y2="319.1"/>
<line class="st14" x1="1596.9" y1="286.4" x2="1622.5" y2="297.6"/>
<line class="st14" x1="1598" y1="262.9" x2="1631.7" y2="245.5"/>
<line class="st14" x1="1524.4" y1="174" x2="1556.1" y2="194.5"/>
<line class="st14" x1="1564.3" y1="150.6" x2="1583.7" y2="205.7"/>
<rect x="511.8" y="884.9" class="st6" width="59.7" height="32.2"/>
<text transform="matrix(1 0 0 1 511.7884 906.3845)" class="st10 st8 st9">AL</text>
<rect x="939.7" y="970.5" class="st6" width="47.1" height="23"/>
<text transform="matrix(1 0 0 1 939.722 989.8395)" class="st2 st8 st12">HI</text>
<line class="st14" x1="943.8" y1="994.1" x2="927" y2="1006.4"/>
</svg>
